<svg xmlns="http://www.w3.org/2000/svg" viewBox="0 0 20 20"><path d="M17.86256,9.35916H9v1.18309h8.86256L15.673,12.61268l.93838.88732,3.23223-3.05634a.70408.70408,0,0,0,0-.88732L16.61137,6.5l-.93838.88732Z"/><path d="M1.17073,16.88291a1.75894,1.75894,0,0,0,1.65854,1.80678H6.63415V13.67087H4.29268A1.20433,1.20433,0,0,1,3.122,12.46636H7.41463A.63879.63879,0,0,1,8,13.06862v6.3237a.844.844,0,0,1-.68293.60226H3.02439A2.96749,2.96749,0,0,1,0,17.08367V2.91633A2.96749,2.96749,0,0,1,3.02439.00542H7.31707A.844.844,0,0,1,8,.60768v6.3237a.63879.63879,0,0,1-.58537.60226H3.122A1.20433,1.20433,0,0,1,4.29268,6.32913H6.63415V1.31031H2.82927A1.75894,1.75894,0,0,0,1.17073,3.11709Z"/></svg>